<svg xmlns="http://www.w3.org/2000/svg" xmlns:xlink="http://www.w3.org/1999/xlink" viewBox="0 0 282.98229 194.76526">
  <defs>
    <style>
      .a, .b {
        fill: #e6e6e6;
      }

      .b, .c, .d, .f, .h, .i, .j, .r, .s, .t, .u, .v, .w {
        stroke: gray;
      }

      .b, .h, .r, .t, .u, .v, .x {
        stroke-miterlimit: 10;
      }

      .c {
        fill: #bacaff;
      }

      .c, .d, .f, .i, .j, .s, .w {
        stroke-linejoin: round;
      }

      .d {
        fill: #8fa9ff;
      }

      .d, .f, .h, .j, .s, .w, .x {
        stroke-linecap: round;
      }

      .e {
        fill: #fff;
      }

      .f, .h, .t, .x {
        fill: none;
      }

      .g {
        fill: url(#a);
      }

      .i, .r {
        fill: #ffe787;
      }

      .j, .p {
        fill: #ffd152;
      }

      .k, .w {
        fill: #ff80dd;
      }

      .l {
        fill: gray;
      }

      .m {
        opacity: 0.57;
      }

      .n {
        fill: url(#b);
      }

      .o {
        fill: url(#c);
      }

      .q {
        fill: url(#d);
      }

      .s {
        fill: url(#e);
      }

      .u {
        fill: #9ad162;
      }

      .v {
        fill: url(#f);
      }

      .x {
        stroke: #fff;
      }
    </style>
    <linearGradient id="a" x1="176.06969" y1="161.1793" x2="187.65759" y2="161.1793" gradientUnits="userSpaceOnUse">
      <stop offset="0.2416" stop-color="#9ad162"/>
      <stop offset="0.73405" stop-color="#9ad162"/>
    </linearGradient>
    <linearGradient id="b" x1="91.19889" y1="32.65245" x2="190.20949" y2="32.65245" gradientUnits="userSpaceOnUse">
      <stop offset="0" stop-color="#cee8fb"/>
      <stop offset="0.23737" stop-color="#c1e4f9"/>
      <stop offset="0.56742" stop-color="#a7dcf5"/>
      <stop offset="0.86517" stop-color="#a7dcf5"/>
      <stop offset="0.99438" stop-color="#8cd4f5"/>
    </linearGradient>
    <linearGradient id="c" x1="173.21519" y1="33.17915" x2="175.87619" y2="33.17915" gradientUnits="userSpaceOnUse">
      <stop offset="0.2416" stop-color="#8ccfae"/>
      <stop offset="0.73405" stop-color="#8ccfae"/>
    </linearGradient>
    <linearGradient id="d" x1="182.196" y1="33.17915" x2="184.85709" y2="33.17915" xlink:href="#a"/>
    <linearGradient id="e" x1="34.97309" y1="125.97165" x2="73.19949" y2="125.97165" gradientTransform="translate(-15.58621 7.90419) rotate(-7.30877)" xlink:href="#a"/>
    <linearGradient id="f" x1="253.91244" y1="149.07173" x2="222.11724" y2="180.67065" gradientUnits="userSpaceOnUse">
      <stop offset="0.2416" stop-color="#ffd152"/>
      <stop offset="0.73405" stop-color="#ffd152"/>
    </linearGradient>
  </defs>
  <title>Fnaim formation AMP</title>
  <g>
    <ellipse class="a" cx="124.10909" cy="175.77938" rx="104.04" ry="9.57743"/>
    <g>
      <g>
        <path class="b" d="M212.75879,140.9458h-22.6764v30.4285h22.6764v-3.4234s-5.40179-8.1824,0-26.0654Z"/>
        <polygon class="c" points="212.759 138.424 108.245 138.424 93.563 141.884 198.077 141.639 212.759 138.424"/>
        <polygon class="c" points="198.077 146.098 198.077 141.639 212.759 138.424 212.759 141.847 198.077 146.098"/>
        <polygon class="c" points="198.077 175.587 198.077 171.128 212.759 167.912 212.759 171.336 198.077 175.587"/>
        <g>
          <path class="d" d="M198.07739,141.6394H96.46939a16.97445,16.97445,0,1,0,0,33.9478h101.608v-4.5038s-8.6356-9.6815,0-24.7486Z"/>
          <path class="e" d="M197.54769,146.3348H97.36009a12.37437,12.37437,0,1,0,0,24.7486h100.1876S188.95249,161.4019,197.54769,146.3348Z"/>
          <line class="f" x1="193.90889" y1="159.0832" x2="92.37969" y2="158.6133"/>
          <line class="f" x1="194.38269" y1="163.7354" x2="92.37969" y2="163.7354"/>
          <polygon class="g" points="187.658 169.05 181.864 164.705 176.07 169.05 176.07 153.308 187.658 153.308 187.658 169.05"/>
          <line class="f" x1="194.86269" y1="153.4912" x2="92.37969" y2="153.4912"/>
        </g>
      </g>
      <g>
        <line class="h" x1="178.45029" y1="146.0985" x2="182.59769" y2="146.0985"/>
        <line class="h" x1="147.83819" y1="146.0985" x2="173.51279" y2="146.0985"/>
      </g>
      <g>
        <line class="h" x1="104.47939" y1="171.3743" x2="100.33189" y2="171.3743"/>
        <line class="h" x1="135.09149" y1="171.3743" x2="109.41679" y2="171.3743"/>
      </g>
    </g>
    <path class="e nuage1" d="M247.64869,68.9122a4.40672,4.40672,0,1,0-1.5114-8.6181,7.02141,7.02141,0,0,0-13.6281-.0786A4.406,4.406,0,1,0,231.19,68.9049"/>
    <path class="e nuage2" d="M276.32379,33.2866a7.02911,7.02911,0,1,0-2.4107-13.7466,11.19969,11.19969,0,0,0-21.7379-.1254A7.02791,7.02791,0,1,0,250.071,33.275"/>
    <path class="e nuage3" d="M49.69649,33.8722a10.6729,10.6729,0,1,0-3.6604-20.8727,17.00554,17.00554,0,0,0-33.0066-.1903,10.67106,10.67106,0,1,0-3.1949,21.0454"/>
    <g>
      <path class="b" d="M201.77639,104.1796H179.1v30.4285h22.67639v-3.4234s-5.4018-8.1825,0-26.0654Z"/>
      <polygon class="i" points="201.776 101.657 97.262 101.657 82.82 105.079 187.095 104.873 201.776 101.657"/>
      <polygon class="i" points="187.095 109.332 187.095 104.873 201.776 101.657 201.776 105.081 187.095 109.332"/>
      <polygon class="i" points="187.095 138.821 187.095 134.362 201.776 131.146 201.776 134.569 187.095 138.821"/>
      <g>
        <path class="j" d="M187.095,104.8731H85.487a16.97445,16.97445,0,1,0,0,33.9478H187.095v-4.5037s-8.63561-9.6816,0-24.7487Z"/>
        <path class="e" d="M186.56529,109.5685H86.37769a12.37442,12.37442,0,1,0,0,24.7487h100.1876S177.97009,124.6356,186.56529,109.5685Z"/>
        <line class="f" x1="182.92649" y1="122.317" x2="81.39729" y2="121.8471"/>
        <line class="f" x1="183.40029" y1="126.9691" x2="81.39729" y2="126.9691"/>
        <polygon class="k" points="176.675 132.164 170.881 127.818 165.087 132.164 165.087 116.422 176.675 116.422 176.675 132.164"/>
        <line class="f" x1="183.88029" y1="116.725" x2="81.39729" y2="116.725"/>
      </g>
      <g>
        <line class="h" x1="167.46789" y1="109.3322" x2="171.61529" y2="109.3322"/>
        <line class="h" x1="136.85569" y1="109.3322" x2="162.53039" y2="109.3322"/>
      </g>
      <g>
        <line class="h" x1="93.497" y1="134.6081" x2="89.34949" y2="134.6081"/>
        <line class="h" x1="124.10909" y1="134.6081" x2="98.43439" y2="134.6081"/>
      </g>
    </g>
    <g>
      <g>
        <g>
          <path class="a" d="M91.19605,24.39756h98.77344a5.03613,5.03613,0,0,1,5.03613,5.03613V91.3834a5.03711,5.03711,0,0,1-5.03711,5.03711H91.19557a5.03662,5.03662,0,0,1-5.03662-5.03662V29.43467a5.03711,5.03711,0,0,1,5.03711-5.03711Z"/>
          <path class="l" d="M189.9687,24.8974a4.54164,4.54164,0,0,1,4.5365,4.53649v61.9498a4.54155,4.54155,0,0,1-4.53641,4.53641H91.19538a4.54164,4.54164,0,0,1-4.5365-4.5365V29.4338a4.54155,4.54155,0,0,1,4.53641-4.5364H189.9687m0-1H91.19529a5.53643,5.53643,0,0,0-5.53641,5.5364V91.3836a5.53649,5.53649,0,0,0,5.5365,5.5365h98.77341a5.53636,5.53636,0,0,0,5.53641-5.53641V29.43389a5.53647,5.53647,0,0,0-5.5365-5.53649Z"/>
        </g>
        <rect class="e" x="91.27609" y="29.5145" width="98.61191" height="57.4196"/>
        <g class="m">
          <rect class="n" x="91.19889" y="29.0981" width="99.0106" height="7.1087"/>
        </g>
        <g>
          <path class="o" d="M175.87619,33.1792a1.3305,1.3305,0,1,1-1.3306-1.3305A1.33052,1.33052,0,0,1,175.87619,33.1792Z"/>
          <path class="p" d="M180.36659,33.1792a1.33045,1.33045,0,1,1-1.3304-1.3305A1.33041,1.33041,0,0,1,180.36659,33.1792Z"/>
          <path class="q" d="M184.85709,33.1792a1.33055,1.33055,0,1,1-1.3305-1.3305A1.33043,1.33043,0,0,1,184.85709,33.1792Z"/>
        </g>
        <path class="l" d="M143.07859,92.7056h-4.3689a1.24826,1.24826,0,0,1-1.2483-1.2483h0a1.24824,1.24824,0,0,1,1.2483-1.2482h4.3689a1.24814,1.24814,0,0,1,1.2482,1.2482h0A1.24817,1.24817,0,0,1,143.07859,92.7056Z"/>
        <g>
          <path class="a" d="M82.87477,101.317a5.83365,5.83365,0,0,1-5.80469-5.32618H203.99391a5.83389,5.83389,0,0,1-5.80567,5.32618Z"/>
          <path class="l" d="M203.42085,96.4911a5.33508,5.33508,0,0,1-5.23215,4.32629H82.87458A5.33515,5.33515,0,0,1,77.6424,96.4911H203.42085m1.09414-1H76.54829a6.32631,6.32631,0,0,0,6.32629,6.32629H198.1887A6.32625,6.32625,0,0,0,204.515,95.4911Z"/>
        </g>
        <path class="l" d="M131.95189,95.9586c0,1.2094,1.4558,2.1895,3.2517,2.1895h11.381c1.796,0,3.2518-.9801,3.2518-2.1895a1.51729,1.51729,0,0,0-.0781-.4675H132.03A1.51137,1.51137,0,0,0,131.95189,95.9586Z"/>
      </g>
      <g>
        <line class="h" x1="91.307" y1="71.1807" x2="91.307" y2="75.7222"/>
        <line class="h" x1="91.307" y1="37.6605" x2="91.307" y2="65.7742"/>
      </g>
      <g>
        <line class="h" x1="126.77349" y1="86.7514" x2="131.315" y2="86.7514"/>
        <line class="h" x1="93.25329" y1="86.7514" x2="121.367" y2="86.7514"/>
      </g>
      <polyline class="h" points="143.642 29.226 189.888 29.226 189.888 64.26"/>
      <g>
        <g>
          <line class="h" x1="114.55219" y1="57.1885" x2="111.55" y2="57.1885"/>
          <line class="h" x1="122.23869" y1="57.1885" x2="116.82869" y2="57.1885"/>
          <line class="h ampoule1" x1="116.82869" y1="49.7729" x2="115.934" y2="49.2242"/>
          <line class="h" x1="122.00669" y1="52.9635" x2="118.53719" y2="50.8358"/>
          <line class="h" x1="116.57479" y1="65.1268" x2="114.55219" y2="66.3672"/>
          <line class="h" x1="122.00669" y1="61.7956" x2="118.53719" y2="63.9233"/>
        </g>
        <g>
          <line class="h" x1="169.107" y1="58.4029" x2="172.10919" y2="58.4029"/>
          <line class="h" x1="161.42049" y1="58.4029" x2="166.83049" y2="58.4029"/>
          <line class="h" x1="166.83049" y1="65.8185" x2="167.72519" y2="66.3672"/>
          <line class="h" x1="161.65249" y1="62.6278" x2="165.122" y2="64.7556"/>
          <line class="h" x1="167.08439" y1="50.4646" x2="169.107" y2="49.2242"/>
          <line class="h" x1="161.65249" y1="53.7958" x2="165.122" y2="51.6681"/>
        </g>
        <g>
          <rect class="l" x="137.07989" y="69.9518" width="8.9224" height="1.4579" rx="0.6455"/>
          <path class="l" d="M138.31179,71.993h6.4587a.6454.6454,0,0,1,.6454.6454v.167a.6455.6455,0,0,1-.6455.6455h-6.4585a.6455.6455,0,0,1-.6455-.6455v-.167A.6454.6454,0,0,1,138.31179,71.993Z"/>
          <path class="l" d="M139.03039,74.0343h5.0215a.6455.6455,0,0,1,.6455.6455v.167a.6454.6454,0,0,1-.6454.6454h-5.0217a.6454.6454,0,0,1-.6454-.6454v-.167A.6455.6455,0,0,1,139.03039,74.0343Z"/>
          <path class="r" d="M153.509,56.4622a11.6549,11.6549,0,1,0-17.25341,10.2106,2.76615,2.76615,0,0,1,1.4499,2.421v.858h7.77v-.5766a2.77768,2.77768,0,0,1,1.5638-2.4796A11.64636,11.64636,0,0,0,153.509,56.4622Z"/>
          <path class="e" d="M148.03569,49.7139c1.7782,1.5495,2.5066,3.6239,1.6271,4.6334-.8797,1.0093-3.0342.5714-4.8124-.9782-1.778-1.5494-2.5066-3.6239-1.6269-4.6332C144.103,47.7265,146.25759,48.1644,148.03569,49.7139Z"/>
          <path class="l" d="M143.13889,76.125a1.6718,1.6718,0,1,1-3.3436,0Z"/>
        </g>
      </g>
    </g>
    <g>
      <rect class="s" x="41.30807" y="75.35877" width="25.55645" height="101.22576" transform="translate(16.46512 -5.85714) rotate(7.30877)"/>
      <rect class="e" x="53.75016" y="76.62927" width="10.06997" height="24.67791" transform="translate(-36.93858 135.95766) rotate(-82.69131)"/>
      <rect class="e" x="44.08079" y="152.01895" width="10.07001" height="24.67791" transform="translate(-120.15499 192.16585) rotate(-82.69131)"/>
      <rect class="e" x="54.89174" y="87.35714" width="5.035" height="24.67792" transform="translate(-48.78034 143.95563) rotate(-82.69108)"/>
    </g>
    <g>
      <path class="a" d="M261.18439,183.1896c.0213,2.5065-10.3773,4.6272-23.226,4.7364s-23.2817-1.8343-23.303-4.3409,10.3773-4.6272,23.2258-4.7364C250.72989,178.7395,261.16309,180.6829,261.18439,183.1896Z"/>
      <g>
        <g>
          <path class="t feuille1" d="M240.81019,174.543c-2.03019-9.76-2.583-24.5848,6.6133-39.2152"/>
          <g>
            <path class="u feuille1" d="M246.19109,137.3265s8.6852-23.0559,28.1651-28.0511C274.35619,109.2754,271.35279,127.6655,246.19109,137.3265Z"/>
            <g>
              <path class="a" d="M250.72819,132.8433a.13858.13858,0,0,1-.1363-.2228c.122-.1505,12.2844-15.0925,20.5126-20.315a.13861.13861,0,0,1,.1488.2339c-8.1906,5.1987-20.3244,20.1056-20.446,20.2555A.13791.13791,0,0,1,250.72819,132.8433Z"/>
              <path class="a" d="M258.76949,129.2919l-.0194.0027-5.5197.3757.2778-3.3606a.13872.13872,0,1,1,.2765.0227l-.2512,3.0395,5.1978-.354a.13867.13867,0,0,1,.0382.274Z"/>
              <path class="a" d="M263.03879,125.89a.14513.14513,0,0,1-.0325.0029l-6.2578-.1845-.2364-3.4886a.14219.14219,0,0,1,.12891-.1477.13867.13867,0,0,1,.14779.1289l.2196,3.2375,6.006.1771a.1387.1387,0,0,1,.0244.2744Z"/>
              <path class="a" d="M266.36469,122.2798a.14178.14178,0,0,1-.0398.0026l-5.9366-.4907.76771-4.2298a.13857.13857,0,1,1,.27269.0495l-.713,3.9289,5.6318.4655a.13872.13872,0,0,1,.0172.274Z"/>
              <path class="a" d="M269.09589,118.1133a.13993.13993,0,0,1-.026.003l-5.0264.1038.2677-2.9138a.13676.13676,0,0,1,.1509-.1252.13832.13832,0,0,1,.1252.1508l-.2391,2.6044,4.7161-.0973a.13867.13867,0,0,1,.0316.2743Z"/>
              <path class="a" d="M270.522,114.9411l-.02511.0031-2.8168.0745.1252-1.5178a.13872.13872,0,1,1,.2765.0227l-.0997,1.2097,2.5075-.0665a.13867.13867,0,0,1,.03241.2743Z"/>
            </g>
          </g>
          <path class="t feuille1" d="M237.454,163.9452a50.83883,50.83883,0,0,0-2.27371-13.5455"/>
          <g>
            <path class="u feuille1" d="M235.78729,152.7226s-2.431-24.5174-19.9577-34.3778C215.82959,118.3448,213.97759,136.8863,235.78729,152.7226Z"/>
            <g>
              <path class="a" d="M232.68,147.423a.14092.14092,0,0,0,.19229-.1831c-.0801-.1797-8.0952-18.0428-14.801-25.3308a.14081.14081,0,1,0-.2075.1904c6.6751,7.255,14.67121,25.0761,14.75121,25.2551A.1414.1414,0,0,0,232.68,147.423Z"/>
              <path class="a" d="M225.71869,141.8244l.0184.0077,5.32,1.8187.60991-3.3721a.141.141,0,0,0-.27741-.0503l-.5517,3.0499-5.0097-1.7129a.141.141,0,0,0-.1095.259Z"/>
              <path class="a" d="M222.42109,137.3634a.15251.15251,0,0,0,.0312.0114l6.1916,1.4625,1.1484-3.3626a.14431.14431,0,0,0-.0876-.1789.14094.14094,0,0,0-.179.0877l-1.0659,3.1206-5.9425-1.4037a.141.141,0,0,0-.0962.263Z"/>
              <path class="a" d="M220.10449,132.9457a.14487.14487,0,0,0,.0384.013l5.9567,1.0777.35741-4.3541a.14083.14083,0,0,0-.28071-.0231l-.3321,4.0443-5.6509-1.0223a.141.141,0,0,0-.0888.2645Z"/>
              <path class="a" d="M218.51759,128.138a.13932.13932,0,0,0,.0247.0097l4.9071,1.4222.50261-2.9307a.13894.13894,0,0,0-.11521-.1625.14046.14046,0,0,0-.1625.1151l-.44929,2.6195-4.60431-1.3342a.1409.1409,0,0,0-.1031.2609Z"/>
              <path class="a" d="M217.95079,124.6494l.0238.0096,2.7458.813.2757-1.5228a.141.141,0,1,0-.2774-.0504l-.2198,1.2136-2.4442-.7238a.14095.14095,0,0,0-.1039.2608Z"/>
            </g>
          </g>
          <path class="t feuille1" d="M234.25189,181.0931a230.69977,230.69977,0,0,0,4.36911-43.8318"/>
          <g>
            <path class="u feuille1" d="M238.849,139.6746s4.754-24.1746-9.17781-38.677C229.67119,100.9976,222.54279,118.2139,238.849,139.6746Z"/>
            <g>
              <path class="a" d="M237.49189,134.0791a.14464.14464,0,0,0,.2433-.1228c-.0256-.2004-2.6056-20.1258-7.0336-29.2736a.14451.14451,0,0,0-.2603.1256c4.4076,9.1062,6.9815,28.9848,7.0071,29.1844A.14441.14441,0,0,0,237.49189,134.0791Z"/>
              <path class="a" d="M232.31209,126.5154l.0158.013,4.6876,3.3637,1.5987-3.1322a.14466.14466,0,0,0-.2576-.1317l-1.4461,2.8329-4.414-3.1676a.14462.14462,0,0,0-.1844.2219Z"/>
              <path class="a" d="M230.39449,121.1552a.15631.15631,0,0,0,.0273.0206l5.6496,3.272,2.1249-2.9633a.14825.14825,0,0,0-.0332-.2018.14447.14447,0,0,0-.2017.0332l-1.9722,2.7499-5.4223-3.1404a.14466.14466,0,0,0-.1724.2298Z"/>
              <path class="a" d="M229.42789,116.1284a.14853.14853,0,0,0,.0339.0242l5.5328,2.8243,1.6417-4.1718a.14455.14455,0,0,0-.269-.1059l-1.5249,3.8749-5.2489-2.6792a.14464.14464,0,0,0-.1656.2335Z"/>
              <path class="a" d="M229.29379,110.9347a.146.146,0,0,0,.0214.0169l4.3996,2.8517,1.3623-2.7304a.14257.14257,0,0,0-.0649-.1938.14422.14422,0,0,0-.1938.0649l-1.2179,2.4404-4.1281-2.6755a.14459.14459,0,0,0-.1786.2258Z"/>
              <path class="a" d="M229.771,107.3393l.02049.0164,2.4566,1.6127.7223-1.4145a.14466.14466,0,1,0-.2576-.1317l-.5757,1.1272-2.1867-1.4356a.14467.14467,0,0,0-.17939.2255Z"/>
            </g>
          </g>
        </g>
        <polygon class="v" points="257.891 153.075 256.861 153.075 218.979 153.075 218.244 153.075 218.244 159.764 220.293 159.764 224.967 183.539 250.872 183.539 255.546 159.764 257.891 159.764 257.891 153.075"/>
      </g>
      <g>
        <line class="h" x1="222.96459" y1="159.7042" x2="218.42319" y2="159.7042"/>
        <line class="h" x1="256.48479" y1="159.7042" x2="228.37109" y2="159.7042"/>
      </g>
    </g>
    <g>
      <path class="a" d="M109.32339,190.4866c.0193,2.273-8.3756,4.1874-18.7507,4.2755s-18.8012-1.6831-18.8206-3.9562,8.3757-4.1873,18.7506-4.2755C100.87779,186.4422,109.30409,188.2134,109.32339,190.4866Z"/>
      <g>
        <path class="w" d="M77.707,157.3361h26.4296a.63541.63541,0,0,1,.63541.63541V189.1979a.6355.6355,0,0,1-.6355.6355H77.707a.63541.63541,0,0,1-.63541-.63541V157.9715A.6354.6354,0,0,1,77.707,157.3361Z"/>
        <g>
          <line class="h" x1="84.91609" y1="160.8228" x2="80.19379" y2="160.8228"/>
          <line class="h" x1="104.772" y1="160.8228" x2="90.53779" y2="160.8228"/>
          <line class="x" x1="101.77739" y1="164.7588" x2="101.77739" y2="178.9931"/>
        </g>
        <g>
          <path class="w" d="M104.772,166.0286v3.9595a4.27575,4.27575,0,1,1,0,8.5515v3.9595a8.23525,8.23525,0,1,0,0-16.4705Z"/>
          <path class="x" d="M110.95349,172.2663a5.91441,5.91441,0,0,0-2.962-3.5968"/>
          <rect class="l" x="104.89829" y="166.0305" width="1.5894" height="3.8129"/>
          <rect class="l" x="104.89829" y="178.4926" width="1.5894" height="3.8129"/>
        </g>
      </g>
    </g>
    <g>
      <g>
        <line class="h" x1="252.62569" y1="77.3021" x2="248.08429" y2="77.3021"/>
        <line class="h" x1="270.88069" y1="77.3021" x2="258.03219" y2="77.3021"/>
        <line class="h" x1="265.65269" y1="81.2476" x2="246.64069" y2="81.2476"/>
      </g>
      <path class="h" d="M263.91689,68.5244a10.37471,10.37471,0,0,0-20.1366-.1161,6.51016,6.51016,0,1,0-1.9491,12.8393"/>
    </g>
    <g>
      <line class="h" x1="233.59489" y1="18.1306" x2="229.05349" y2="18.1306"/>
      <line class="h" x1="267.11509" y1="18.1306" x2="239.00139" y2="18.1306"/>
    </g>
    <g>
      <g>
        <line class="h" x1="65.51139" y1="44.2652" x2="70.05289" y2="44.2652"/>
        <line class="h" x1="31.99129" y1="44.2652" x2="60.105" y2="44.2652"/>
      </g>
      <path class="t" d="M44.523,44.2652A7.88332,7.88332,0,1,0,41.81939,28.848a12.56074,12.56074,0,0,0-24.3795-.1406A7.88194,7.88194,0,1,0,15.08,44.2521"/>
    </g>
  </g>
</svg>
